Coordinates
version=1
nRows=11
nColumns=40
inDegrees=yes

Units are S.I. units (second, meters, Newtons, ...)
Angles are in degrees.

endheader
time	pelvis_tilt	pelvis_list	pelvis_rotation	pelvis_tx	pelvis_ty	pelvis_tz	hip_flexion_r	hip_adduction_r	hip_rotation_r	knee_angle_r	knee_angle_r_beta	ankle_angle_r	subtalar_angle_r	mtp_angle_r	hip_flexion_l	hip_adduction_l	hip_rotation_l	knee_angle_l	knee_angle_l_beta	ankle_angle_l	subtalar_angle_l	mtp_angle_l	lumbar_extension	lumbar_bending	lumbar_rotation	arm_flex_r	arm_add_r	arm_rot_r	elbow_flex_r	pro_sup_r	wrist_flex_r	wrist_dev_r	arm_flex_l	arm_add_l	arm_rot_l	elbow_flex_l	pro_sup_l	wrist_flex_l	wrist_dev_l
      0.00000000	     -6.27223430	      2.70416581	      5.91957006	     -1.05154343	      0.94106036	     -0.94331829	      2.03006963	     -2.45883634	    -18.34221081	    -15.65830541	     -0.27328898	     11.36001186	     -0.96450512	    -13.90061231	     30.04671922	      2.98686938	     16.07654519	    -35.71288356	     -0.62330740	      2.18200272	     11.72022392	      6.70920825	     -4.66532980	     -4.65971278	      5.56771566	      9.96272120	    -12.69587086	     -9.20160927	     24.17558901	     89.95437384	      0.00000000	      0.00000000	     -6.17429119	     14.14222734	     13.94816453	     15.50529181	     89.95437384	      0.00000000	      0.00000000
      0.01000000	     -6.04467268	      2.69993632	      5.39841110	     -1.03969432	      0.93989281	     -0.94409105	      0.60783459	     -2.35381072	    -18.32294506	    -14.79918066	     -0.25829443	     11.66960032	     -0.37813329	    -13.96543288	     30.23844689	      2.98939166	     15.80524268	    -32.64510689	     -0.56976460	      1.21006865	     10.42363792	      6.84259894	     -4.83634482	     -4.64599228	      6.07343201	     10.25091911	    -12.79171265	     -9.15479533	     24.87198841	     89.95437384	      0.00000000	      0.00000000	     -6.79277431	     14.24407310	     14.16678934	     14.88425484	     89.95437384	      0.00000000	      0.00000000
      0.02000000	     -6.02821520	      2.70963898	      4.87378727	     -1.02793106	      0.93813792	     -0.94489365	     -0.45207791	     -2.33421062	    -18.32775970	    -14.23894049	     -0.24851639	     12.03241454	      0.03965430	    -14.05029742	     30.59125601	      2.98207781	     15.55635590	    -29.52917757	     -0.51538137	      0.28758927	      8.84915939	      6.93619382	     -4.77910276	     -4.67265703	      6.47541063	     10.57209205	    -12.94101804	     -8.39832187	     25.51546632	     89.95437384	      0.00000000	      0.00000000	     -7.49011347	     14.32605962	     14.54796256	     14.25370585	     89.95437384	      0.00000000	      0.00000000
      0.03000000	     -5.64428986	      2.57241740	      4.32581733	     -1.01528170	      0.93679317	     -0.94549192	     -2.07163456	     -2.12578496	    -18.62761284	    -13.39960821	     -0.23386728	     12.13761761	      0.88387305	    -14.22857904	     30.41368915	      3.28308762	     15.67528655	    -26.42095959	     -0.46113274	     -0.49572992	      6.97439260	      7.07494655	     -5.07971955	     -4.50335083	      6.91232521	     10.78173571	    -13.03407750	     -8.03506244	     26.32688449	     89.95437384	      0.00000000	      0.00000000	     -8.22429969	     14.33121977	     15.20583640	     13.64336119	     89.95437384	      0.00000000	      0.00000000
      0.04000000	     -5.64910344	      2.37144072	      3.84069607	     -1.00318453	      0.93461603	     -0.94636024	     -3.09721597	     -1.89504668	    -18.63038976	    -12.87859255	     -0.22477384	     12.41461974	      1.27431277	    -14.37399486	     30.79371694	      3.57128281	     15.57935739	    -23.66492932	     -0.41303093	     -1.27709755	      5.70913550	      7.22329226	     -4.95779576	     -4.30641615	      7.33693147	     10.96399592	    -13.15731466	     -7.67996466	     27.06328020	     89.95437384	      0.00000000	      0.00000000	     -8.91450914	     14.34329044	     15.56713064	     13.24753572	     89.95437384	      0.00000000	      0.00000000
      0.05000000	     -5.30619248	      2.46639049	      3.27740782	     -0.99065627	      0.93298012	     -0.94714545	     -4.47625380	     -2.05281268	    -18.88121045	    -12.49747034	     -0.21812201	     12.56730116	      1.91084733	    -14.58595423	     30.56517419	      3.70617933	     16.14723452	    -20.84443227	     -0.36380397	     -2.24569262	      3.88459188	      7.23773770	     -5.28509379	     -4.41932872	      7.72154624	     11.18210748	    -13.25751130	     -7.00899575	     27.86917780	     89.95437384	      0.00000000	      0.00000000	     -9.57994583	     14.37295735	     16.22321707	     12.73951838	     89.95437384	      0.00000000	      0.00000000
      0.06000000	     -5.41216519	      2.22001196	      2.80785620	     -0.97839041	      0.93046162	     -0.94817153	     -5.27586541	     -1.87119252	    -18.94752284	    -12.23344922	     -0.21351397	     12.67222015	      2.38401169	    -14.71466039	     31.00499225	      4.07356682	     16.29524732	    -18.46909310	     -0.32234648	     -2.76810898	      2.68651713	      7.28507425	     -5.06347482	     -4.14669883	      8.08225968	     11.31115015	    -13.34293727	     -6.67105422	     28.64126382	     89.95437384	      0.00000000	      0.00000000	    -10.29980834	     14.29741310	     16.60595272	     12.33256870	     89.95437384	      0.00000000	      0.00000000
      0.07000000	     -4.95903193	      2.31210992	      2.20092812	     -0.96524316	      0.92889718	     -0.94926581	     -6.81003521	     -2.15089388	    -19.60718721	    -11.83971291	     -0.20664197	     12.74159595	      3.72351658	    -15.19226498	     30.63734494	      4.35821961	     17.82669310	    -16.24327639	     -0.28349865	     -3.51274229	      0.30090377	      7.02213489	     -5.42490794	     -4.25886344	      8.51143952	     11.39090978	    -13.38342293	     -6.38498594	     29.45035344	     89.95437384	      0.00000000	      0.00000000	    -10.97158423	     14.23254112	     17.72159929	     11.96556511	     89.95437384	      0.00000000	      0.00000000
      0.08000000	     -5.10711927	      2.09135292	      1.73731863	     -0.95254706	      0.92625779	     -0.95064193	     -7.45497035	     -2.10817680	    -19.70446668	    -11.88836520	     -0.20749112	     12.72374941	      4.16895439	    -15.31548755	     31.11166046	      4.69969409	     18.31564479	    -14.50341164	     -0.25313229	     -3.64507392	     -0.68547441	      6.97064288	     -5.09444181	     -4.01956851	      8.92029510	     11.42824443	    -13.47692117	     -6.02440583	     30.03369147	     89.95437384	      0.00000000	      0.00000000	    -11.68526803	     14.11931240	     17.82679438	     11.58627871	     89.95437384	      0.00000000	      0.00000000
      0.09000000	     -4.68750319	      2.30476808	      1.12085125	     -0.93880293	      0.92466459	     -0.95209542	     -8.86901941	     -2.70194966	    -20.50458309	    -11.81287608	     -0.20617358	     12.77724539	      6.03518086	    -15.96230693	     30.86813649	      4.93323258	     20.52454206	    -13.23478802	     -0.23099063	     -4.21538624	     -3.38234936	      6.57532790	     -5.35199992	     -4.25579454	      9.31560165	     11.40276362	    -13.46173107	     -5.80187220	     30.80250458	     89.95437384	      0.00000000	      0.00000000	    -12.39934271	     14.02303170	     18.24961708	     11.23623157	     89.95437384	      0.00000000	      0.00000000
      0.10000000	     -4.62145252	      2.39049252	      0.57407250	     -0.92514002	      0.92262664	     -0.95388883	     -9.76260762	     -3.24974660	    -21.12786641	    -11.99289523	     -0.20931551	     12.68283725	      7.79575595	    -16.63449131	     31.05782662	      5.09022921	     21.79351393	    -12.30483845	     -0.21475994	     -4.35785653	     -4.85551063	      6.10107780	     -5.20690154	     -4.34412771	      9.70467618	     11.27324048	    -13.49015086	     -5.63349852	     31.47929916	     89.95437384	      0.00000000	      0.00000000	    -13.07515025	     13.84178939	     18.88553504	     10.84794079	     89.95437384	      0.00000000	      0.00000000
